<?xml version="1.0" encoding="UTF-8"?>
<svg id="Layer_2" data-name="Layer 2" xmlns="http://www.w3.org/2000/svg" viewBox="0 0 595.9 245.23">
  <defs>
    <style>
      .cls-1 {
        fill: #fff;
      }

      .cls-1, .cls-2 {
        fill-rule: evenodd;
      }

      .cls-2 {
        fill: #231f20;
      }
    </style>
  </defs>
  <g id="Layer_1-2" data-name="Layer 1">
    <g>
      <g>
        <path class="cls-2" d="M180.93,33.88l6.71.58c6.68-6.4,16.06-6.08,19.49,3.6,3.71,10.49-5.59,16.61-10.2,20.79l-34.11,32.18c2.54,13.23,50.86,51.97,61.04,59.83,44.85,34.67,101.47,66.22,158.33,82.74,58.23,16.92,126.03,18.97,176.49-18.55,8.11-6.03,50.11-37.95,32.22-55.21l-24.17,14.48-16.66,38.25c-11.87,7.01-29.44,11.77-45.4,13.28-49.13,4.63-102.39-8.88-145.61-26.54-31.15-12.72-65.99-31.79-93.15-51.1-11.29-8.03-72.95-57.3-78.11-72.49,20.16-17.99,45.17-33.72,42.54-55.24-4.37-11.73-17.81-16.27-28.38-9.17-3.69,2.48-18.68,16.83-21.02,22.57Z"/>
        <path class="cls-2" d="M357.82,102.29c5.75,1.81,13.48,3.42,20.37,1.64,8.09-2.08,17.12-11.54,22.46-17.74-.05,15.44-2.23,37.98,4.18,48.44,2.46,3.1,6.49,2.71,8.72-.21,3.78-5.44,17.66-16.5,18.66-23.85-5.61.77-8.41,5-9.05-.4-1.86-2.08-1.92-.2-1.88-10.58.06-15,1.01-76.15-2.2-81.75-16.81,7.37-13.41,11.95-24.47,19.18,6.44,3.79,4.76,2.34,5.64,4.98l.5,27.32c.03,6.97-.65,10.08-4.72,13.01-9.05,6.53-38.85-6.58-33.34-18.32,3.93-8.37,30.15-21.9,32.37-35.25,2.47-14.84-13.69-14.94-22.98-8.18-5.19,3.77-17.51,13.6-17.94,19.68l16.81-1.26c-15.22,22.48-12.04,19.09-30.5,36.46-12.06,11.35,8.07,23.93,17.36,26.85Z"/>
        <path class="cls-2" d="M58.56,65.38l.09,17.46c-2.17,7.46-3.02,15.29-11.3,20.44-8.82,3.87-20.27,1.8-25.27-3.71-6.82-7.53-3.58-16.24,1.93-21.46,8.53-8.08,11.26-.23,21.01.6l13.55-13.34h0ZM77.31,18.49c-1.21-1.37-2.44-.79-3.25.17-5.9,7.72-10.33,10.77-21.03,22.76,2.85,1.87-.88.3,5.28,1.35l.04,10.94c-17.76-5.33-28.51,7.48-36.33,15.65C14.53,77.2,1.4,88.48.16,102.41c-1.56,17.43,8.37,31.7,26.97,27.13,11.33-2.25,22.62-13.44,31.52-24.62l3.78,45.06c7.28-2.36,15.52-12.04,21.15-17.52-9.24-30.29,2.28-98.07-6.27-113.97Z"/>
        <path class="cls-2" d="M231.33,38.3l4.85.51c.29,4.35.59,8.7.88,13.06-7.97,2.14-15.55,2.98-23.9,7.58-.31.19-13.72,11.3-13.9,15.88,44.54-.34,21.97-2.52,37.7-8.43,1.64,20.54,3.44,40.6,5.08,61.15.68,2.66,5.44,3.61,7.52.37,4.59-7.44,19.28-16.92,20.01-25.34l-11.43-9.57c.04-16.98.75-65.5-1.08-76.65-8.06,5.07-22.25,12.27-25.73,21.45Z"/>
        <path class="cls-2" d="M292.26,121.09c13.43.66,17.73-5.02,23.42-11.96,10.63-12.98,6.39-6.16,14.57-21.53-12.41-.21-5.68,5.53-17,6.91-9.12,1.11-13.58-2.04-17.21-6.01-15.17-9.74-9.78-45.19,3.58-44.17l16.82,5.88,19.12-20.77c-5.43-11.07-21.24-9.05-33.55,1.82-7.59,6.7-18.28,17.19-24.13,24.85-15.94,20.84-13.67,60.89,14.38,64.98Z"/>
        <path class="cls-2" d="M105.13,19.49l-19.56,21.57,6.37,1.7,3.41,106.76c9.71-2.91,9.71-9.94,19.66-14.45,2.63-5.24.56-3.96-1.33-10.57-2.91-10.18-1.08-65.3-1.14-82.2-.05-11.7.33-17.57-.22-20.48-.96-5.1-3.81-5.38-7.19-2.35Z"/>
        <path class="cls-2" d="M143.21,91.69c-7.99-5.69-3.84-19.8,3.03-22.66,7.97-3.32,16.62,5.46,22.76,7.93,7.36-2.96,13.36-13.13,20.49-17.21-4.38-10.42-21.04-14.97-32.2-10.45-8.79,3.56-18.8,15.15-24.69,21.53-6.97,7.55-15.99,16.23-14.85,31.44.92,12.33,11.1,23.73,22.39,24.98l17.73-18.24-14.66-17.33Z"/>
        <path class="cls-2" d="M328.57,76.18c4.75-.2,24.14-17.95,25.38-23.08-17.92-.23-25.69-2.71-33.09,4.62-3.24,3.21-16.2,13.42-17.05,18.33l24.76.13Z"/>
      </g>
      <g>
        <path class="cls-1" d="M181.56,25.95l6.71.58c6.68-6.4,16.06-6.08,19.49,3.6,3.71,10.49-5.59,16.61-10.2,20.79l-34.11,32.18c2.54,13.23,50.86,51.97,61.04,59.83,44.85,34.67,101.47,66.22,158.33,82.74,58.23,16.92,126.03,18.97,176.49-18.55,8.11-6.03,50.11-37.95,32.22-55.21l-24.17,14.48-16.66,38.25c-11.87,7.01-29.44,11.77-45.4,13.28-49.13,4.63-102.39-8.88-145.61-26.54-31.15-12.72-65.99-31.79-93.15-51.1-11.29-8.03-72.95-57.3-78.11-72.49,20.16-17.99,45.17-33.72,42.54-55.24-4.37-11.73-17.81-16.27-28.38-9.17-3.69,2.48-18.68,16.83-21.02,22.57Z"/>
        <path class="cls-1" d="M358.44,94.37c5.75,1.81,13.47,3.42,20.37,1.64,8.09-2.08,17.12-11.54,22.46-17.74-.05,15.44-2.23,37.98,4.18,48.44,2.46,3.1,6.49,2.71,8.72-.21,3.78-5.43,17.66-16.5,18.66-23.85-5.61.77-8.41,5-9.05-.4-1.86-2.08-1.92-.2-1.88-10.58.06-15,1.01-76.15-2.2-81.75-16.81,7.36-13.41,11.95-24.47,19.17,6.44,3.79,4.76,2.35,5.64,4.98l.5,27.32c.03,6.97-.65,10.08-4.72,13.01-9.05,6.53-38.85-6.58-33.34-18.32,3.93-8.37,30.15-21.9,32.37-35.25,2.47-14.84-13.69-14.94-22.98-8.18-5.19,3.77-17.51,13.6-17.94,19.68l16.81-1.26c-15.22,22.48-12.04,19.09-30.5,36.46-12.06,11.35,8.07,23.93,17.36,26.85Z"/>
        <path class="cls-1" d="M59.18,57.46l.09,17.46c-2.17,7.46-3.02,15.29-11.3,20.44-8.82,3.87-20.27,1.8-25.27-3.71-6.82-7.53-3.58-16.24,1.93-21.46,8.53-8.08,11.26-.23,21.01.6l13.55-13.34h0ZM77.94,10.57c-1.21-1.37-2.44-.79-3.25.17-5.9,7.72-10.33,10.77-21.03,22.76,2.85,1.87-.88.3,5.29,1.35l.04,10.94c-17.75-5.33-28.51,7.48-36.33,15.65-7.49,7.83-20.62,19.11-21.86,33.04-1.56,17.43,8.37,31.7,26.97,27.13,11.33-2.25,22.62-13.44,31.52-24.62l3.78,45.06c7.28-2.36,15.52-12.04,21.15-17.52-9.24-30.29,2.28-98.07-6.27-113.97Z"/>
        <path class="cls-1" d="M231.95,30.37l4.85.51c.29,4.35.59,8.7.88,13.06-7.97,2.14-15.55,2.98-23.9,7.58-.31.19-13.72,11.3-13.9,15.88,44.54-.34,21.97-2.52,37.7-8.43,1.64,20.54,3.44,40.6,5.08,61.15.68,2.66,5.44,3.61,7.52.37,4.59-7.44,19.28-16.92,20.01-25.34l-11.43-9.57c.04-16.98.75-65.5-1.08-76.65-8.06,5.07-22.25,12.27-25.73,21.45Z"/>
        <path class="cls-1" d="M292.88,113.17c13.43.66,17.73-5.02,23.42-11.96,10.63-12.98,6.39-6.16,14.57-21.53-12.41-.21-5.68,5.54-17,6.91-9.12,1.11-13.58-2.04-17.21-6.01-15.17-9.74-9.78-45.19,3.58-44.17l16.82,5.88,19.12-20.77c-5.43-11.07-21.24-9.05-33.55,1.82-7.59,6.7-18.28,17.19-24.13,24.85-15.94,20.84-13.67,60.89,14.38,64.98Z"/>
        <path class="cls-1" d="M105.75,11.56l-19.56,21.57,6.37,1.7,3.41,106.76c9.71-2.91,9.71-9.94,19.66-14.45,2.63-5.24.56-3.96-1.33-10.57-2.91-10.18-1.08-65.3-1.14-82.2-.05-11.7.33-17.57-.22-20.48-.96-5.1-3.81-5.38-7.19-2.35Z"/>
        <path class="cls-1" d="M143.83,83.76c-7.99-5.69-3.84-19.8,3.03-22.66,7.97-3.32,16.62,5.46,22.76,7.93,7.36-2.96,13.36-13.13,20.49-17.21-4.38-10.42-21.04-14.97-32.2-10.45-8.79,3.56-18.8,15.15-24.69,21.53-6.97,7.55-15.99,16.23-14.85,31.44.92,12.33,11.1,23.73,22.39,24.98l17.73-18.24-14.66-17.33Z"/>
        <path class="cls-1" d="M329.19,68.25c4.75-.2,24.14-17.95,25.38-23.08-17.92-.23-25.69-2.71-33.09,4.62-3.24,3.21-16.2,13.42-17.05,18.33l24.76.13Z"/>
      </g>
    </g>
  </g>
</svg>