<?xml version="1.0" encoding="UTF-8"?>
<svg id="Layer_2" data-name="Layer 2" xmlns="http://www.w3.org/2000/svg" viewBox="0 0 103.64 106.2">
  <defs>
    <style>
      .cls-1, .cls-2 {
        fill: #197039;
      }

      .cls-1, .cls-2, .cls-3, .cls-4 {
        fill-rule: evenodd;
      }

      .cls-2 {
        stroke: #197039;
        stroke-miterlimit: 2.61;
        stroke-width: .22px;
      }

      .cls-3 {
        fill: #231f20;
      }

      .cls-4 {
        fill: #f7941d;
      }
    </style>
  </defs>
  <g id="Layer_1-2" data-name="Layer 1">
    <g>
      <path class="cls-3" d="M45.79,106.11l.19-4.21h1.97c.24-.01.45.1.62.32.17.22.26.48.26.79,0,.38-.14.7-.4.96-.27.27-.6.41-.99.41-.19,0-.32-.02-.41-.06l-.21-.65c.1.04.2.06.31.06.25,0,.47-.07.66-.22.18-.14.27-.3.27-.5,0-.13-.05-.24-.14-.33-.09-.09-.2-.14-.33-.14h-.85s-.16,3.56-.16,3.56h-.78ZM50.49,106.2c-.27,0-.5-.09-.7-.28-.19-.19-.29-.41-.29-.67,0-.23.12-.44.35-.65.25-.21.56-.37.93-.48.16-.05.29-.11.39-.18.1-.07.15-.15.15-.24,0-.05-.04-.09-.11-.13-.08-.03-.17-.05-.27-.05-.2,0-.4.05-.61.14-.2.09-.39.22-.58.4l.07-1.01c.1-.08.24-.14.43-.18.21-.04.43-.06.68-.06.33,0,.61.08.85.25.24.16.35.37.35.61l-.03.33-.12,2.08h-.67s.1-1.57.1-1.57c-.04.05-.12.1-.23.16-.13.06-.28.12-.44.17-.17.06-.3.13-.41.22-.11.09-.16.17-.16.26,0,.06.03.11.1.14.07.04.15.06.26.06.12,0,.32-.06.59-.18l-.18.77c-.18.06-.34.09-.47.09h0ZM53.2,106.07l.14-3.14h.78s-.02.29-.02.29c.08-.12.19-.2.32-.26.13-.06.27-.1.43-.1l.16.03.11.74c-.1-.04-.22-.06-.36-.06-.2,0-.37.1-.51.29-.14.19-.22.43-.24.72l-.07,1.48h-.72ZM55.93,106.06l.14-3.14h.72s-.14,3.14-.14,3.14h-.72ZM56.06,102.68l.05-.83h.72s-.05.83-.05.83h-.72ZM58.71,106.05l-1-3.14h.83s.66,2.31.66,2.31l.84-2.32h.78s-1.23,3.15-1.23,3.15h-.88ZM62.43,106.15c-.27,0-.5-.09-.7-.28-.19-.19-.29-.41-.29-.67,0-.23.12-.44.35-.65.25-.21.56-.37.93-.48.16-.05.29-.11.39-.18s.15-.15.15-.24c0-.05-.04-.09-.11-.13-.08-.03-.17-.05-.27-.05-.2,0-.4.05-.61.14-.2.09-.39.22-.58.4l.07-1.01c.1-.08.24-.14.43-.18.21-.04.43-.06.68-.06.33,0,.61.08.85.25.24.16.35.37.35.61l-.03.33-.12,2.08h-.67s.1-1.57.1-1.57c-.04.05-.12.1-.23.16-.13.06-.28.12-.44.17-.17.06-.3.13-.41.22-.11.09-.16.17-.16.26,0,.06.03.11.1.14.07.04.15.06.26.06.12,0,.32-.06.59-.18l-.18.77c-.18.06-.34.09-.47.09h0ZM65.14,106.02l.14-3.14h.78s-.02.29-.02.29c.08-.12.19-.2.32-.26.13-.06.27-.1.43-.1l.16.03.11.74c-.1-.04-.22-.06-.36-.06-.2,0-.37.1-.51.29-.14.19-.22.43-.24.72l-.07,1.48h-.72ZM69.31,106l.19-4.21h2.64s-.05.7-.05.7h-1.84s-.05,1.02-.05,1.02h1.63s-.05.7-.05.7h-1.6s-.1,1.79-.1,1.79h-.78ZM74.13,106.04c-.47,0-.81-.13-1.03-.39-.23-.26-.32-.64-.3-1.15.04-.59.19-1.03.47-1.33.28-.3.67-.45,1.18-.46.41,0,.73.14.97.42.24.28.35.65.34,1.11-.01.59-.16,1.03-.43,1.33-.28.3-.68.45-1.2.46h0ZM74.21,105.38c.26,0,.45-.09.59-.26.14-.18.22-.43.23-.75.01-.29-.04-.53-.17-.71-.13-.18-.31-.27-.54-.26-.24,0-.43.09-.56.26-.13.17-.2.43-.21.78,0,.32.04.56.15.71.11.16.28.24.5.24h0ZM77.77,106.05c-.31,0-.57-.14-.78-.41-.21-.28-.3-.6-.26-.98l.1-1.84h.72s-.08,1.78-.08,1.78c-.02.21.04.39.16.55.12.15.28.22.45.22.19,0,.35-.07.49-.2.14-.14.22-.31.24-.51l.09-1.84h.74s-.16,3.14-.16,3.14h-.72s0-.29,0-.29c-.13.13-.28.23-.44.29-.16.06-.34.1-.54.1h0ZM80.72,105.95l.14-3.14h.72s-.02.41-.02.41c.11-.15.26-.27.44-.36.19-.08.39-.12.62-.12.29,0,.54.08.75.26.21.17.31.38.31.63v.18s-.07,2.14-.07,2.14h-.72s.07-1.72.07-1.72c0-.01,0-.04-.01-.08-.01-.06-.02-.09-.02-.1,0-.18-.06-.33-.18-.44-.12-.12-.27-.18-.44-.18-.22,0-.4.08-.55.25-.15.17-.24.37-.25.62l-.07,1.66h-.72ZM85.86,106.04c-.33,0-.61-.15-.85-.45-.23-.3-.35-.66-.35-1.09,0-.5.15-.92.46-1.28.31-.35.69-.53,1.13-.54.27,0,.48.03.62.09l.05-1.07h.72s-.19,4.21-.19,4.21h-.72s0-.23,0-.23c-.1.12-.22.2-.37.26-.16.06-.33.1-.51.1h0ZM86.06,105.39c.17,0,.32-.06.45-.19.13-.12.21-.28.24-.47l.07-1.28c-.18-.06-.34-.09-.47-.09-.26,0-.47.11-.66.34-.18.22-.27.48-.27.8,0,.25.06.46.18.63.13.17.27.26.44.26h0ZM89.51,106.02c-.27,0-.5-.09-.7-.28-.19-.19-.29-.41-.29-.67,0-.23.12-.44.35-.65.25-.21.56-.37.93-.48.16-.05.29-.11.39-.18.1-.07.15-.15.15-.24,0-.05-.04-.09-.11-.13-.08-.03-.17-.05-.27-.05-.2,0-.4.05-.61.14-.2.09-.39.22-.58.4l.07-1.01c.1-.08.24-.14.43-.18.21-.04.43-.06.68-.06.33,0,.61.08.85.25.24.16.35.37.35.61l-.03.33-.12,2.08h-.67s.1-1.57.1-1.57c-.04.05-.12.1-.23.16-.13.06-.28.12-.44.17-.17.06-.3.13-.41.22-.11.09-.16.17-.16.26,0,.06.03.11.1.14.07.04.15.06.26.06.12,0,.32-.06.59-.18l-.18.77c-.18.06-.34.09-.47.09h0ZM93.29,105.95c-.27,0-.5-.1-.69-.3-.19-.2-.27-.44-.25-.7l.1-1.6h-.41s.05-.59.05-.59h.41s.05-.54.05-.54l.72-.18-.05.71h.72s-.05.59-.05.59h-.7s-.07,1.37-.07,1.37c0,.17.02.31.1.44.07.12.16.18.27.18.08,0,.17-.01.25-.04.07-.02.12-.06.16-.11l-.15.71c-.1.04-.25.06-.47.06h0ZM94.87,105.88l.14-3.14h.72s-.14,3.14-.14,3.14h-.72ZM95.01,102.5l.05-.83h.72s-.05.83-.05.83h-.72ZM98.06,105.93c-.47,0-.81-.13-1.03-.39-.23-.26-.32-.64-.3-1.15.04-.59.19-1.03.47-1.33.28-.3.67-.45,1.18-.46.41,0,.73.14.97.42.24.28.35.65.34,1.11-.01.59-.16,1.03-.43,1.33-.28.3-.68.45-1.2.46h0ZM98.13,105.27c.26,0,.45-.09.59-.26.14-.18.22-.43.23-.75.01-.29-.04-.53-.17-.71-.13-.18-.31-.27-.54-.26-.24,0-.43.09-.56.26-.13.17-.2.43-.21.78,0,.32.04.56.15.71.11.16.28.24.5.24h0ZM100.68,105.85l.14-3.14h.72s-.02.41-.02.41c.11-.15.26-.27.44-.36.19-.08.39-.12.62-.12.29,0,.54.08.75.26.21.17.31.38.31.63v.18s-.07,2.14-.07,2.14h-.72s.07-1.72.07-1.72c0-.01,0-.04-.01-.08-.01-.06-.02-.09-.02-.1,0-.18-.06-.33-.18-.44-.12-.12-.27-.18-.44-.18-.22,0-.4.08-.55.25-.15.17-.24.37-.25.62l-.07,1.66h-.72Z"/>
      <path class="cls-4" d="M62.64,61.03C.65,94.24-26.91,26.62,34.44,0,1.56,17.99-2.03,76.74,62.64,61.03Z"/>
      <path class="cls-1" d="M41.39,29.04c2.79-.01,5.06,2.34,5.08,5.26.01,2.92-2.24,5.29-5.03,5.31-2.79.01-5.06-2.34-5.08-5.26-.01-2.92,2.24-5.29,5.03-5.31Z"/>
      <path class="cls-2" d="M16.94,100.8c-1,0-1.69-.34-2.07-1.04-.42-.68-.68-2.04-.8-4.07-.34-4.44-.95-7.41-1.83-8.91.24-.29.55-.52.95-.69.43-.18.86-.27,1.31-.27.25,0,.53.06.83.19.3.13.58.3.84.52-.05.3-.08.78-.11,1.43l.74,5.47.5,4.28,4.94-12.28c.54,0,1.02.09,1.43.28.4.17.6.39.6.66,0,.49-.15,1.01-.47,1.55l-5.18,12.75c-.3.05-.86.09-1.67.13h0ZM27.22,100.63c-.55.08-1-.04-1.33-.35-.38-.3-.57-.7-.58-1.19,0-.56.19-1.27.58-2.14-.37-.36-.63-.68-.79-.95-.19-.28-.29-.52-.29-.71,0-.14.06-.25.19-.33.14-.1.32-.14.52-.15h1.19c.85-2.33,1.71-4.27,2.59-5.85.99-2.02,1.54-3.41,1.65-4.17,1.64.29,2.69.51,3.17.65.84.25,1.26.54,1.24.87,0,.24-.04.48-.12.71-.31.73-.47,1.84-.46,3.33.01,2.36.14,4.35.38,5.97.25,1.63.61,2.85,1.09,3.66l-.35.48c-.94-.27-1.58-.47-1.93-.61-.51-.2-.82-.39-.93-.57-.14-.19-.26-.49-.36-.9-.13-.43-.38-2.9-.49-3.61l-3.8,1.92c-.78,1.78-1.18,3.09-1.17,3.93h0ZM29.08,95.38l3.11-.6c-.29-1.68-.46-3.42-.5-5.23-.65.8-1.6,3.13-2.61,5.83h0ZM43.06,100.44c-.73,0-1.35-.1-1.86-.3-.51-.2-.76-.46-.76-.76l-.06-12.49c-1.03,0-1.93-.11-2.69-.34s-1.14-.51-1.12-.83c.02-.16.11-.27.28-.33.16-.1.38-.14.67-.15l8.33-.51c.57,0,1.05.1,1.43.3.41.2.61.46.6.76-.01.37-.96.71-2.83,1.04-.73.11-1.2.45-1.4,1.01-.2.56-.29,1.75-.27,3.57l.03,5.71c0,.94.09,1.65.25,2.14.06.29.11.48.12.59,0,.08,0,.15,0,.23,0,.07-.06.15-.19.23-.14.1-.32.14-.52.15h0ZM53.32,100.4c-1.48,0-2.63-.13-3.48-.41-.87-.3-1.3-.67-1.29-1.11,0-.25.04-.45.12-.6.08-.21.2-.37.35-.48.35.3.88.54,1.57.71.75.16,1.53.23,2.36.23.6,0,1.08-.07,1.43-.2.33-.13.49-.3.47-.53,0-.11-.06-.21-.19-.28-.14-.09-.32-.16-.52-.19-1.48-.25-2.73-.87-3.77-1.86-.99-.98-1.49-2.1-1.49-3.35,0-1.57.32-3.21.98-4.91.66-1.65,1.31-2.48,1.96-2.48,1.14,0,2.53.46,4.17,1.41.33.14.59.41.77.81.18.33.28.78.32,1.33,0,1.16-.09,2.17-.3,3.02-.22.84-.51,1.26-.87,1.27-.48,0-.9-.14-1.26-.42-.35-.32-.53-.69-.53-1.12l.22-3.09c0-.3-.07-.56-.19-.76-.1-.21-.23-.31-.41-.31-.41,0-.8.57-1.16,1.69-.34,1.18-.5,2.4-.48,3.67,0,.65.28,1.26.82,1.83.54.57,1.23.95,2.05,1.13.92.22,1.64.56,2.15,1.04.56.47.84,1,.84,1.57,0,.75-.26,1.33-.8,1.74-.55.43-1.31.65-2.28.65h-1.55ZM61,100.48c-.55.08-1-.03-1.33-.35-.38-.3-.57-.7-.58-1.19,0-.55.19-1.27.58-2.14-.37-.36-.63-.68-.79-.95-.19-.28-.29-.52-.29-.71,0-.14.06-.25.19-.33.14-.1.32-.14.52-.15h1.19c.85-2.33,1.71-4.27,2.59-5.85.99-2.02,1.54-3.41,1.65-4.17,1.64.29,2.69.51,3.17.65.84.25,1.26.54,1.24.87,0,.24-.04.48-.12.71-.31.73-.47,1.84-.46,3.33.01,2.36.14,4.35.38,5.97.25,1.63.61,2.85,1.09,3.66l-.35.48c-.94-.27-1.58-.47-1.93-.61-.51-.2-.82-.39-.93-.57-.14-.19-.26-.49-.36-.9-.13-.43-.25-1-.37-1.71l-3.93.02c-.78,1.78-1.18,3.09-1.17,3.93h0ZM63,94.64h2.97c-.29-1.69-.46-3.44-.5-5.25-.65.8-1.47,2.55-2.47,5.25h0ZM73.23,100.3c-.38,0-1.02-.07-1.9-.23l.64-15.47c.44-.18.88-.26,1.31-.24.49,0,.94.11,1.36.33.38.19.68.47.91.85-.7,1.95-1.05,5.41-1.02,10.36,0,.92.05,1.63.13,2.14l2.62.34c.43.05.8.16,1.12.33.3.17.45.38.43.62-.01.27-.24.49-.69.67-.44.19-1.01.29-1.69.29h-3.21ZM84.09,100.73c-.67,0-1.23-.14-1.69-.42-.45-.3-.68-.67-.7-1.12,0-.24.19-.79.59-1.67l.82-2.03-3.61-8.07c-.24-.52-.36-.92-.36-1.19,0-.38.18-.71.54-1,.4-.29.85-.43,1.35-.43.17,0,.31.06.41.19.11.09.18.23.19.4.39,2.19,1.31,4.52,2.77,7.01l2.35-5.6c.49-1,.72-1.91.7-2.74.68,0,1.35.11,2,.35.68.25,1.29.61,1.81,1.06-.38.27-.77.74-1.16,1.41-.41.7-.77,1.5-1.08,2.41l-2.94,6.91c-.77,1.76-1.24,3.11-1.41,4.05-.05.16-.12.27-.21.33-.13.1-.25.14-.38.14h0ZM94.13,100.33c-.55.08-1-.03-1.33-.35-.38-.3-.57-.7-.58-1.19,0-.55.19-1.27.59-2.14-.37-.36-.63-.68-.79-.95-.19-.28-.29-.52-.29-.71,0-.14.06-.25.19-.33.14-.1.32-.14.52-.15h1.19c.85-2.33,1.71-4.27,2.59-5.85.99-2.02,1.54-3.41,1.65-4.17,1.63.29,2.69.51,3.17.65.84.25,1.26.54,1.24.87,0,.24-.04.48-.12.71-.31.73-.47,1.84-.46,3.33.01,2.36.14,4.35.38,5.97.25,1.63.61,2.85,1.09,3.66l-.35.48c-.94-.27-1.58-.47-1.93-.61-.51-.2-.82-.39-.93-.57-.14-.19-.26-.49-.36-.9-.13-.43-.25-1-.36-1.71l-3.93.02c-.78,1.78-1.18,3.09-1.17,3.93h0ZM96.12,94.49h2.97c-.29-1.69-.46-3.44-.5-5.25-.65.8-1.47,2.55-2.47,5.25Z"/>
      <path class="cls-4" d="M15.49,28.47c61.99-33.21,89.55,34.4,28.2,61.03-2.17.67-2.32.21-2.1.09C73.87,71.18,79.74,12.85,15.49,28.47Z"/>
      <path class="cls-1" d="M13.4,19.9c6.04,2.64,17.05,13.52,29.18,28.18,6.21-9.68,13.11-18.54,23.76-25.05-.18,1.09-.35,2.18-.53,3.27,1.76-1.04,3.56-2.56,5.84-2.95-2.5,2.55-5.34,4.63-6.61,7.74,2.17-.28,4.34-.55,6.51-.83-12.55,8.06-22.3,26.68-27.68,51.72l.14,20.09c0,1.28-3.77,1.7-3.79-.16l-.2-19.9c-3.46-21.56-12.66-43.39-32.03-55.31,3.02.7,6.03,1.39,9.05,2.09-2.96-3.13-5.92-6.27-8.88-9.4,2.51,1.28,5.02,2.55,7.53,3.83-.76-1.1-1.52-2.21-2.28-3.31Z"/>
      <path class="cls-4" d="M75.03,61.7c-4.66,10.39-14.74,20.59-31.33,27.79-2.92.9-2.62.27-.76-.89,10.15-6.3,17.53-16.42,20.61-26.85l11.48-.05Z"/>
      <path class="cls-4" d="M27.98,95.98c-.6.45-2.34,1.5-2.57,2.09-.51,1.41.15,2.91,1.87,2.62.76-5.65,10.21-8.03,16.64-11.29.59-.3-1.17-.67-.83-.86-4.75,2.17-10.04,3.87-15.1,7.44Z"/>
    </g>
  </g>
</svg>